<?xml version="1.0" encoding="UTF-8" standalone="no"?>
<!-- Uploaded to: SVG Repo, www.svgrepo.com, Generator: SVG Repo Mixer Tools -->

<svg
   width="800"
   height="800"
   viewBox="0 0 64 64"
   fill="none"
   stroke="#000000"
   version="1.1"
   id="svg60"
   xmlns="http://www.w3.org/2000/svg"
   xmlns:svg="http://www.w3.org/2000/svg">
  <defs
     id="defs64" />
  <path
     d="m 49,15 a 24,24 0 0 1 0,34"
     id="path50" />
  <path
     d="m 42,22 a 14.15,14.15 0 0 1 0,20"
     id="path52" />
  <rect
     x="8"
     y="8"
     width="28"
     height="48"
     rx="4"
     id="rect54" />
  <line
     x1="18"
     y1="12"
     x2="26"
     y2="12"
     id="line56" />
  <line
     x1="20"
     y1="52"
     x2="24"
     y2="52"
     id="line58" />
  <path
     style="fill:#ffffff;stroke-width:0.0825808"
     d="M 10.917944,56.315401 C 9.3462624,55.892348 8.1995712,54.771742 7.7079284,53.178409 7.5622962,52.706438 7.556129,51.846013 7.556129,32 c 0,-19.846013 0.00617,-20.706438 0.1517994,-21.178408 C 8.1436768,9.409404 9.104616,8.358456 10.446452,7.8265607 l 0.578064,-0.2291413 10.759058,-0.022147 c 9.650126,-0.019864 10.811955,-0.0085 11.272258,0.1102604 1.566033,0.4040424 2.833546,1.6490272 3.242262,3.1846372 0.177351,0.666328 0.177351,41.593332 0,42.25966 -0.412325,1.549169 -1.718232,2.820269 -3.274351,3.187078 -0.769901,0.181482 -21.431213,0.180074 -22.105799,-0.0015 z m 21.975612,-0.903395 c 1.047541,-0.27285 1.785916,-0.872986 2.263842,-1.840003 L 35.468387,52.94276 V 32 11.057241 L 35.157398,10.427997 C 34.679472,9.4609792 33.941097,8.8608432 32.893556,8.5879936 32.21368,8.4109088 11.757892,8.4031352 11.094726,8.5797104 9.7291928,8.9432968 8.7108096,10.090274 8.5079968,11.49307 c -0.1113536,0.770196 -0.1113536,40.243664 0,41.01386 0.1983184,1.371709 1.1126976,2.438794 2.4585222,2.869107 0.445169,0.142338 1.044161,0.150807 10.961937,0.155005 9.05409,0.0038 10.55597,-0.01247 10.9651,-0.119036 z"
     id="path239" />
  <path
     style="fill:#ffffff;stroke-width:0.0825808"
     d="M 18.002581,11.974194 V 11.52 h 3.963871 3.96387 v 0.454194 0.454193 h -3.96387 -3.963871 z"
     id="path241" />
  <path
     style="fill:#ffffff;stroke-width:0.0825808"
     d="m 20.067097,52.025806 v -0.454193 h 1.940645 1.940645 V 52.025806 52.48 h -1.940645 -1.940645 z"
     id="path243" />
  <path
     style="fill:#ffffff;stroke-width:0.0825808"
     d="m 42.016775,41.936947 -0.303053,-0.303053 0.523304,-0.565216 c 2.974066,-3.212266 4.148664,-8.195615 2.972935,-12.61298 -0.544363,-2.045245 -1.644929,-4.090008 -2.974095,-5.525629 l -0.524464,-0.56647 0.333584,-0.322445 0.333582,-0.322444 0.373455,0.412903 c 0.498352,0.550994 1.410711,1.78131 1.775927,2.394839 0.900464,1.512693 1.47172,3.038868 1.854624,4.954838 0.21152,1.058393 0.21152,3.979027 0,5.03742 -0.4411,2.207172 -1.10935,3.849229 -2.271888,5.582599 C 43.552995,40.932838 42.493362,42.24 42.376985,42.24 c -0.03144,0 -0.193531,-0.136374 -0.36021,-0.303053 z"
     id="path245" />
  <path
     style="fill:#ffffff;stroke-width:0.0825808"
     d="m 49.038376,48.961067 -0.303559,-0.306079 0.648389,-0.70943 C 54.34483,42.516849 56.498618,35.166592 55.24131,27.953548 54.462719,23.486856 52.46172,19.42275 49.382062,16.053194 l -0.649534,-0.710678 0.311396,-0.304071 0.311397,-0.304071 0.612662,0.643136 c 2.921883,3.067215 5.18077,7.458022 6.052855,11.765499 0.378081,1.867447 0.486896,3.200747 0.440202,5.393765 -0.08284,3.890732 -0.799063,6.808101 -2.535221,10.326652 -1.079958,2.188675 -2.469421,4.207654 -3.963914,5.759824 l -0.61997,0.643896 z"
     id="path247" />
</svg>
